<svg width="16" height="15" viewBox="0 0 16 15" fill="none" xmlns="http://www.w3.org/2000/svg">
<path d="M14.966 3.5889C15.1358 3.04112 15.1903 2.46409 15.126 1.89421C15.0616 1.32433 14.88 0.773955 14.5924 0.277787C14.5436 0.193313 14.4734 0.12317 14.389 0.0744083C14.3045 0.025647 14.2087 -1.28148e-05 14.1111 9.09121e-06C13.464 -0.00134537 12.8256 0.148665 12.2468 0.438054C11.668 0.727443 11.165 1.14819 10.7778 1.66668H9.11111C8.72394 1.14819 8.22087 0.727443 7.64209 0.438054C7.06331 0.148665 6.42487 -0.00134537 5.77778 9.09121e-06C5.68024 -1.28148e-05 5.58441 0.025647 5.49993 0.0744083C5.41545 0.12317 5.3453 0.193313 5.29653 0.277787C5.00892 0.773955 4.82724 1.32433 4.76294 1.89421C4.69863 2.46409 4.75311 3.04112 4.92292 3.5889C4.57967 4.18801 4.39581 4.86513 4.38889 5.55556V6.11112C4.39006 7.05112 4.7313 7.95896 5.3496 8.66699C5.9679 9.37502 6.8215 9.83543 7.75278 9.9632C7.37265 10.4496 7.16631 11.0493 7.16667 11.6667V12.2222H5.5C5.05797 12.2222 4.63405 12.0466 4.32149 11.7341C4.00893 11.4215 3.83333 10.9976 3.83333 10.5556C3.83333 10.1908 3.76148 9.82957 3.62189 9.49256C3.48229 9.15554 3.27768 8.84932 3.01974 8.59138C2.7618 8.33344 2.45558 8.12883 2.11857 7.98923C1.78155 7.84964 1.42034 7.77779 1.05556 7.77779C0.908213 7.77779 0.766905 7.83632 0.662718 7.94051C0.558532 8.04469 0.5 8.186 0.5 8.33334C0.5 8.48069 0.558532 8.62199 0.662718 8.72618C0.766905 8.83037 0.908213 8.8889 1.05556 8.8889C1.49758 8.8889 1.92151 9.06449 2.23407 9.37705C2.54663 9.68961 2.72222 10.1135 2.72222 10.5556C2.72222 11.2923 3.01488 11.9988 3.53581 12.5198C4.05675 13.0407 4.76329 13.3333 5.5 13.3333H7.16667V14.4445C7.16667 14.5918 7.2252 14.7331 7.32939 14.8373C7.43357 14.9415 7.57488 15 7.72222 15C7.86957 15 8.01087 14.9415 8.11506 14.8373C8.21925 14.7331 8.27778 14.5918 8.27778 14.4445V11.6667C8.27778 11.2246 8.45337 10.8007 8.76593 10.4882C9.07849 10.1756 9.50242 10 9.94444 10C10.3865 10 10.8104 10.1756 11.123 10.4882C11.4355 10.8007 11.6111 11.2246 11.6111 11.6667V14.4445C11.6111 14.5918 11.6696 14.7331 11.7738 14.8373C11.878 14.9415 12.0193 15 12.1667 15C12.314 15 12.4553 14.9415 12.5595 14.8373C12.6637 14.7331 12.7222 14.5918 12.7222 14.4445V11.6667C12.7226 11.0493 12.5162 10.4496 12.1361 9.9632C13.0674 9.83543 13.921 9.37502 14.5393 8.66699C15.1576 7.95896 15.4988 7.05112 15.5 6.11112V5.55556C15.4931 4.86513 15.3092 4.18801 14.966 3.5889ZM14.3889 6.11112C14.3889 6.84783 14.0962 7.55437 13.5753 8.07531C13.0544 8.59624 12.3478 8.8889 11.6111 8.8889H8.27778C7.54107 8.8889 6.83453 8.59624 6.31359 8.07531C5.79266 7.55437 5.5 6.84783 5.5 6.11112V5.55556C5.50681 5.00003 5.67314 4.45815 5.97917 3.99445C6.03622 3.91926 6.07317 3.83077 6.08653 3.73733C6.0999 3.6439 6.08924 3.5486 6.05556 3.46043C5.91085 3.08723 5.84121 2.68915 5.85062 2.28899C5.86004 1.88883 5.94832 1.49446 6.11042 1.12848C6.56508 1.17739 7.00291 1.32801 7.39144 1.56916C7.77997 1.81031 8.10925 2.13581 8.35486 2.52154C8.40491 2.5998 8.47379 2.66427 8.5552 2.70904C8.6366 2.7538 8.72793 2.77744 8.82083 2.77779H11.0674C11.1606 2.77779 11.2524 2.75432 11.3342 2.70954C11.416 2.66475 11.4852 2.6001 11.5354 2.52154C11.781 2.13578 12.1103 1.81025 12.4988 1.56909C12.8873 1.32794 13.3252 1.17734 13.7799 1.12848C13.9417 1.49455 14.0298 1.88897 14.039 2.28913C14.0481 2.68928 13.9783 3.08732 13.8333 3.46043C13.7998 3.54776 13.7885 3.64209 13.8006 3.73486C13.8128 3.82764 13.8479 3.91591 13.9028 3.99168C14.2118 4.45537 14.3806 4.99837 14.3889 5.55556V6.11112Z" fill="#F8F7F7"/>
</svg>
